<?xml version="1.0" encoding="UTF-8"?>
<svg id="Layer_2" data-name="Layer 2" xmlns="http://www.w3.org/2000/svg" xmlns:xlink="http://www.w3.org/1999/xlink" viewBox="0 0 251.05 42.66">
  <defs>
    <style>
      .cls-1 {
        fill: url(#linear-gradient-2);
      }

      .cls-2, .cls-3 {
        fill: #0c1895;
      }

      .cls-4 {
        fill: url(#linear-gradient);
      }

      .cls-5 {
        fill: #00adee;
      }

      .cls-5, .cls-6, .cls-3 {
        fill-rule: evenodd;
      }

      .cls-7 {
        fill: #2a292b;
      }

      .cls-6 {
        fill: #ec1c24;
      }
    </style>
    <linearGradient id="linear-gradient" x1="158.15" y1="21.2" x2="158.15" y2="42.66" gradientUnits="userSpaceOnUse">
      <stop offset="0" stop-color="#adadad"/>
      <stop offset=".14" stop-color="#afafaf" stop-opacity=".97"/>
      <stop offset=".29" stop-color="#b5b5b5" stop-opacity=".9"/>
      <stop offset=".45" stop-color="#bfbfbf" stop-opacity=".77"/>
      <stop offset=".61" stop-color="#cdcdcd" stop-opacity=".6"/>
      <stop offset=".78" stop-color="#e0e0e0" stop-opacity=".37"/>
      <stop offset=".94" stop-color="#f6f6f6" stop-opacity=".1"/>
      <stop offset="1" stop-color="#fff" stop-opacity="0"/>
    </linearGradient>
    <linearGradient id="linear-gradient-2" x1="158.15" y1="-374.68" x2="158.15" y2="-353.22" gradientTransform="translate(0 -353.22) scale(1 -1)" xlink:href="#linear-gradient"/>
  </defs>
  <g id="Layer_1-2" data-name="Layer 1">
    <g>
      <g>
        <path class="cls-7" d="M70.86,40.37c-.66,0-1.25-.15-1.77-.45s-.93-.73-1.23-1.3-.45-1.25-.45-2.06.15-1.49.45-2.06c.3-.57.71-1,1.24-1.3.52-.3,1.11-.45,1.76-.45.42,0,.81.06,1.18.18.36.12.69.29.97.52.28.23.51.5.69.83.18.33.3.7.35,1.12h-1.54c-.03-.21-.1-.39-.19-.55-.09-.16-.21-.29-.35-.4-.14-.11-.3-.2-.49-.25s-.38-.09-.59-.09c-.38,0-.72.1-1.01.29-.29.19-.52.47-.68.84-.16.37-.24.81-.24,1.34s.08.98.24,1.35c.16.37.39.64.68.83.29.19.62.28,1.01.28.21,0,.41-.03.59-.09.18-.06.34-.14.49-.25.14-.11.26-.25.36-.41.1-.16.16-.34.2-.54h1.54c-.04.35-.14.68-.31.99s-.38.6-.65.85c-.27.25-.6.44-.97.59-.38.14-.8.21-1.26.21Z"/>
        <path class="cls-7" d="M78.42,40.37c-.65,0-1.24-.15-1.77-.45-.52-.3-.94-.73-1.24-1.3-.3-.57-.46-1.25-.46-2.06s.15-1.49.46-2.06c.3-.57.72-1,1.24-1.3.52-.3,1.11-.45,1.77-.45s1.25.15,1.77.45.93.73,1.24,1.3c.3.57.46,1.26.46,2.06s-.15,1.49-.46,2.06c-.3.57-.72,1-1.24,1.3s-1.11.45-1.77.45ZM78.42,39.02c.38,0,.72-.09,1.01-.28.29-.19.51-.46.67-.83.16-.37.24-.81.24-1.34s-.08-.99-.24-1.35c-.16-.37-.38-.64-.67-.83-.29-.19-.62-.28-1.01-.28s-.72.09-1.01.28c-.29.19-.51.47-.67.83-.16.37-.24.82-.24,1.35s.08.97.24,1.34c.16.37.38.64.67.83.29.19.62.28,1.01.28Z"/>
        <path class="cls-7" d="M83.02,40.27v-7.42h2.89c.56,0,1.04.1,1.44.3s.7.48.9.84c.21.36.31.79.31,1.27s-.11.91-.32,1.26c-.21.35-.52.62-.92.81-.4.19-.89.28-1.46.28h-1.96v-1.23h1.72c.31,0,.57-.04.77-.13.2-.08.35-.21.45-.38s.15-.37.15-.62-.05-.46-.15-.64c-.1-.17-.25-.3-.45-.39-.2-.09-.46-.13-.77-.13h-1.09v6.17h-1.52ZM87.15,40.27l-1.81-3.38h1.65l1.84,3.38h-1.68Z"/>
        <path class="cls-7" d="M89.72,40.27v-7.42h2.89c.56,0,1.04.11,1.44.32.4.21.7.51.9.89.21.38.31.81.31,1.3s-.11.92-.32,1.3-.52.67-.92.88c-.4.21-.88.32-1.46.32h-1.86v-1.23h1.62c.31,0,.57-.05.77-.16.2-.11.35-.26.45-.45s.15-.41.15-.66-.05-.47-.15-.66c-.1-.19-.25-.33-.45-.44-.2-.1-.46-.16-.77-.16h-1.09v6.17h-1.52Z"/>
        <path class="cls-7" d="M99.58,40.37c-.65,0-1.24-.15-1.77-.45-.52-.3-.94-.73-1.24-1.3-.3-.57-.46-1.25-.46-2.06s.15-1.49.46-2.06c.3-.57.72-1,1.24-1.3.52-.3,1.11-.45,1.77-.45s1.25.15,1.77.45c.52.3.93.73,1.24,1.3.3.57.46,1.26.46,2.06s-.15,1.49-.46,2.06c-.3.57-.72,1-1.24,1.3-.52.3-1.11.45-1.77.45ZM99.58,39.02c.39,0,.72-.09,1.01-.28.29-.19.51-.46.67-.83.16-.37.24-.81.24-1.34s-.08-.99-.24-1.35-.38-.64-.67-.83c-.29-.19-.62-.28-1.01-.28s-.72.09-1.01.28c-.29.19-.51.47-.67.83-.16.37-.24.82-.24,1.35s.08.97.24,1.34c.16.37.38.64.67.83.29.19.62.28,1.01.28Z"/>
        <path class="cls-7" d="M104.18,40.27v-7.42h2.89c.56,0,1.04.1,1.44.3s.7.48.9.84c.21.36.31.79.31,1.27s-.11.91-.32,1.26c-.21.35-.52.62-.92.81-.4.19-.89.28-1.46.28h-1.96v-1.23h1.72c.31,0,.57-.04.77-.13.2-.08.35-.21.45-.38s.15-.37.15-.62-.05-.46-.15-.64c-.1-.17-.25-.3-.45-.39-.2-.09-.46-.13-.77-.13h-1.09v6.17h-1.52ZM108.31,40.27l-1.81-3.38h1.65l1.84,3.38h-1.68Z"/>
        <path class="cls-7" d="M110.46,40.27l2.54-7.42h1.99l2.6,7.42h-1.69l-1.19-3.58c-.14-.46-.29-.97-.44-1.52-.15-.55-.3-1.15-.47-1.8h.33c-.16.65-.31,1.26-.45,1.81-.14.55-.28,1.06-.41,1.51l-1.15,3.58h-1.68ZM112.04,38.55v-1.19h3.96v1.19h-3.96Z"/>
        <path class="cls-7" d="M117.29,34.11v-1.26h6.06v1.26h-2.27v6.16h-1.52v-6.16h-2.27Z"/>
        <path class="cls-7" d="M125.92,32.85v7.42h-1.52v-7.42h1.52Z"/>
        <path class="cls-7" d="M130.52,40.37c-.65,0-1.24-.15-1.77-.45-.52-.3-.94-.73-1.24-1.3-.3-.57-.46-1.25-.46-2.06s.15-1.49.46-2.06c.3-.57.72-1,1.24-1.3.52-.3,1.11-.45,1.77-.45s1.25.15,1.77.45.93.73,1.24,1.3c.3.57.46,1.26.46,2.06s-.15,1.49-.46,2.06c-.3.57-.72,1-1.24,1.3s-1.11.45-1.77.45ZM130.52,39.02c.38,0,.72-.09,1.01-.28.29-.19.51-.46.67-.83.16-.37.24-.81.24-1.34s-.08-.99-.24-1.35c-.16-.37-.38-.64-.67-.83-.29-.19-.62-.28-1.01-.28s-.72.09-1.01.28c-.29.19-.51.47-.67.83-.16.37-.24.82-.24,1.35s.08.97.24,1.34c.16.37.38.64.67.83.29.19.62.28,1.01.28Z"/>
        <path class="cls-7" d="M135.12,40.27v-7.42h1.69l2.35,3.76c.12.19.24.4.36.63.12.23.25.48.38.75.13.28.25.59.38.93h-.15c-.02-.28-.04-.57-.06-.88-.02-.31-.03-.61-.05-.9-.01-.29-.02-.53-.02-.73v-3.56h1.55v7.42h-1.7l-2.13-3.41c-.16-.26-.3-.5-.43-.74s-.27-.51-.42-.8-.32-.64-.51-1.04h.19c.02.36.04.7.06,1.03s.04.63.05.89c.01.27.02.49.02.65v3.41h-1.55Z"/>
      </g>
      <g>
        <path class="cls-7" d="M174,17.19c-.67,0-1.27-.16-1.79-.47-.53-.31-.94-.76-1.25-1.34-.3-.58-.46-1.29-.46-2.11s.15-1.53.46-2.11c.31-.59.72-1.03,1.25-1.35.53-.31,1.12-.47,1.79-.47.42,0,.81.06,1.17.18.36.12.69.29.97.52.29.23.52.5.7.83s.31.7.37,1.12h-1.38c-.04-.23-.12-.43-.23-.6-.11-.17-.24-.32-.4-.44-.16-.12-.34-.21-.54-.28-.2-.06-.42-.1-.65-.1-.42,0-.79.11-1.11.32-.32.21-.58.52-.76.92-.18.4-.27.89-.27,1.47s.09,1.08.28,1.48.44.7.76.91.69.31,1.1.31c.23,0,.44-.03.65-.09.2-.06.38-.16.55-.28.16-.12.3-.27.41-.45.11-.18.18-.38.23-.6h1.38c-.05.37-.16.71-.34,1.03-.17.32-.4.6-.68.84-.28.24-.61.43-.98.57s-.78.21-1.23.21Z"/>
        <path class="cls-7" d="M182.07,17.19c-.67,0-1.27-.16-1.8-.47-.53-.31-.95-.76-1.25-1.34-.31-.58-.46-1.29-.46-2.11s.15-1.53.46-2.11c.31-.59.72-1.03,1.25-1.35.53-.31,1.13-.47,1.8-.47s1.26.16,1.79.47c.53.31.95.76,1.25,1.35.31.59.46,1.29.46,2.11s-.15,1.52-.46,2.11c-.31.59-.72,1.03-1.25,1.34-.53.31-1.12.46-1.79.46ZM182.07,15.97c.41,0,.78-.1,1.1-.31.32-.21.57-.51.75-.91.18-.4.27-.89.27-1.47s-.09-1.08-.27-1.48c-.18-.4-.43-.71-.75-.91-.32-.21-.69-.31-1.1-.31s-.79.1-1.11.31-.57.51-.76.92c-.18.4-.27.89-.27,1.47s.09,1.07.27,1.47.43.7.76.91.69.31,1.11.31Z"/>
        <path class="cls-7" d="M187.18,17.09v-7.64h1.55l2.64,4.21c.11.17.23.37.35.59.12.22.25.47.38.74.13.27.26.57.39.91h-.15c-.02-.29-.04-.58-.06-.88-.02-.3-.03-.59-.04-.86,0-.27-.01-.5-.01-.69v-4.01h1.39v7.64h-1.55l-2.38-3.79c-.15-.24-.29-.48-.42-.72-.13-.24-.28-.5-.43-.8-.15-.3-.34-.66-.56-1.08h.2c.02.37.04.73.06,1.06.02.33.03.63.04.89.01.26.02.48.02.64v3.79h-1.39Z"/>
        <path class="cls-7" d="M198.15,17.21c-.59,0-1.1-.09-1.54-.28s-.78-.45-1.02-.8-.38-.78-.4-1.28h1.35c.02.27.11.49.25.67s.33.31.57.4c.24.09.5.13.78.13s.57-.05.8-.14c.23-.09.41-.22.54-.39.13-.17.2-.36.2-.58,0-.2-.06-.36-.17-.49s-.28-.24-.48-.33c-.21-.09-.45-.17-.73-.24l-.87-.23c-.64-.16-1.14-.41-1.49-.74s-.54-.77-.54-1.31c0-.45.12-.85.36-1.18.24-.34.57-.6.99-.79.42-.19.9-.28,1.43-.28s1.02.09,1.43.28c.41.19.73.45.96.78.23.33.35.71.36,1.13h-1.33c-.03-.33-.18-.58-.44-.76-.26-.18-.59-.27-1.01-.27-.29,0-.53.04-.74.13-.21.09-.37.21-.48.36-.11.15-.17.32-.17.52,0,.21.07.39.2.52s.3.25.5.33.4.15.61.2l.71.18c.28.07.56.16.83.27.27.11.51.26.72.43.21.17.38.38.51.63.13.25.19.54.19.87,0,.45-.11.84-.34,1.18-.23.34-.56.6-.99.79-.43.19-.95.28-1.56.28Z"/>
        <path class="cls-7" d="M205.71,17.2c-.62,0-1.17-.12-1.63-.35-.46-.23-.83-.56-1.08-.97-.26-.42-.38-.9-.38-1.44v-4.99h1.37v4.88c0,.32.07.6.21.85s.34.44.6.59c.26.14.56.21.92.21s.66-.07.92-.21c.26-.14.46-.34.6-.59.14-.25.21-.53.21-.85v-4.88h1.37v4.99c0,.54-.13,1.02-.39,1.44-.26.42-.62.74-1.08.97-.46.23-1.01.35-1.63.35Z"/>
        <path class="cls-7" d="M210.65,17.09v-7.64h1.37v6.49h3.37v1.15h-4.74Z"/>
        <path class="cls-7" d="M215.59,10.61v-1.15h6.08v1.15h-2.35v6.49h-1.37v-6.49h-2.36Z"/>
        <path class="cls-7" d="M224.55,9.45v7.64h-1.37v-7.64h1.37Z"/>
        <path class="cls-7" d="M226.4,17.09v-7.64h1.55l2.64,4.21c.11.17.23.37.35.59.12.22.25.47.38.74.13.27.26.57.4.91h-.15c-.02-.29-.04-.58-.06-.88-.02-.3-.03-.59-.04-.86,0-.27-.01-.5-.01-.69v-4.01h1.39v7.64h-1.55l-2.38-3.79c-.15-.24-.29-.48-.43-.72-.13-.24-.28-.5-.43-.8-.15-.3-.34-.66-.56-1.08h.2c.02.37.04.73.06,1.06.02.33.03.63.04.89s.02.48.02.64v3.79h-1.39Z"/>
        <path class="cls-7" d="M237.98,17.19c-.7,0-1.32-.16-1.85-.48-.53-.32-.94-.77-1.24-1.35-.3-.58-.45-1.28-.45-2.08s.15-1.53.46-2.11c.31-.59.72-1.04,1.25-1.35.53-.31,1.12-.47,1.79-.47.42,0,.81.06,1.18.18.36.12.69.3.97.53.29.23.52.5.7.81s.3.65.36,1.03h-1.4c-.06-.21-.15-.39-.25-.55s-.24-.3-.39-.42-.32-.2-.52-.26c-.19-.06-.41-.09-.64-.09-.41,0-.78.1-1.1.31s-.58.51-.76.91-.28.89-.28,1.47.09,1.06.28,1.46c.18.4.44.71.76.92.32.21.7.31,1.13.31.39,0,.73-.07,1.01-.23.29-.15.51-.36.66-.64s.23-.6.23-.98l.31.05h-2.08v-1.08h3.09v.92c0,.65-.14,1.22-.42,1.69-.28.48-.66.84-1.15,1.1-.49.26-1.05.38-1.67.38Z"/>
        <path class="cls-7" d="M170.4,22.06v-1.15h6.08v1.15h-2.35v6.49h-1.37v-6.49h-2.36Z"/>
        <path class="cls-7" d="M177.99,28.54v-7.64h2.86c.58,0,1.08.1,1.48.31.4.21.7.49.91.86.21.37.31.79.31,1.28s-.1.91-.31,1.27-.51.64-.92.83-.9.29-1.49.29h-2.04v-1.13h1.86c.34,0,.63-.05.85-.15.22-.1.38-.24.49-.43.11-.19.16-.42.16-.68s-.05-.51-.16-.7c-.11-.19-.27-.34-.49-.44-.22-.1-.5-.15-.85-.15h-1.28v6.49h-1.37ZM182.29,28.54l-1.86-3.47h1.5l1.89,3.47h-1.53Z"/>
        <path class="cls-7" d="M184.64,28.54l2.67-7.64h1.74l2.73,7.64h-1.5l-1.36-3.97c-.13-.41-.27-.87-.42-1.39-.14-.52-.3-1.11-.48-1.77h.29c-.17.67-.33,1.26-.46,1.78-.14.52-.27.98-.39,1.38l-1.31,3.97h-1.5ZM186.2,26.65v-1.1h4.03v1.1h-4.03Z"/>
        <path class="cls-7" d="M194.48,20.9v7.64h-1.37v-7.64h1.37Z"/>
        <path class="cls-7" d="M196.33,28.54v-7.64h1.55l2.64,4.21c.11.17.23.37.35.59.12.22.25.47.38.74.13.27.26.57.4.91h-.15c-.02-.29-.04-.58-.06-.88-.02-.3-.03-.59-.04-.86,0-.27-.01-.5-.01-.69v-4.01h1.39v7.64h-1.55l-2.38-3.79c-.15-.24-.29-.48-.43-.72-.13-.24-.28-.5-.43-.8-.15-.3-.34-.66-.56-1.08h.2c.02.37.04.73.06,1.06.02.33.03.63.04.89s.02.48.02.64v3.79h-1.39Z"/>
        <path class="cls-7" d="M205.99,20.9v7.64h-1.37v-7.64h1.37Z"/>
        <path class="cls-7" d="M207.84,28.54v-7.64h1.55l2.64,4.21c.11.17.23.37.35.59.12.22.25.47.38.74.13.27.26.57.39.91h-.15c-.02-.29-.04-.58-.06-.88-.02-.3-.03-.59-.04-.86,0-.27-.01-.5-.01-.69v-4.01h1.39v7.64h-1.55l-2.38-3.79c-.15-.24-.29-.48-.42-.72-.13-.24-.28-.5-.43-.8-.15-.3-.34-.66-.56-1.08h.2c.02.37.04.73.06,1.06.02.33.03.63.04.89.01.26.02.48.02.64v3.79h-1.39Z"/>
        <path class="cls-7" d="M219.42,28.64c-.7,0-1.32-.16-1.85-.48-.53-.32-.94-.77-1.24-1.35-.3-.58-.45-1.28-.45-2.08s.15-1.53.46-2.11c.31-.59.72-1.04,1.25-1.35.53-.31,1.12-.47,1.79-.47.42,0,.81.06,1.18.18s.69.3.97.53c.29.23.52.5.7.81.18.31.3.65.36,1.03h-1.4c-.06-.21-.15-.39-.25-.55-.11-.16-.24-.3-.39-.42-.15-.12-.33-.2-.52-.26-.19-.06-.41-.09-.64-.09-.41,0-.78.1-1.1.31-.32.21-.58.51-.76.91s-.28.89-.28,1.47.09,1.06.28,1.46c.18.4.44.71.76.92.33.21.7.31,1.13.31.39,0,.73-.07,1.01-.23.29-.15.51-.36.66-.64.16-.28.23-.6.23-.98l.31.05h-2.08v-1.08h3.09v.92c0,.65-.14,1.22-.42,1.69-.28.48-.66.84-1.15,1.1-.49.26-1.04.38-1.67.38Z"/>
        <path class="cls-7" d="M174,40.09c-.67,0-1.27-.16-1.79-.47-.53-.31-.94-.76-1.25-1.34-.3-.58-.46-1.29-.46-2.11s.15-1.53.46-2.11c.31-.59.72-1.03,1.25-1.35.53-.31,1.12-.47,1.79-.47.42,0,.81.06,1.17.18.36.12.69.29.97.52.29.23.52.5.7.83s.31.7.37,1.12h-1.38c-.04-.23-.12-.43-.23-.6-.11-.17-.24-.32-.4-.44-.16-.12-.34-.21-.54-.28-.2-.06-.42-.1-.65-.1-.42,0-.79.11-1.11.32-.32.21-.58.52-.76.92-.18.4-.27.89-.27,1.47s.09,1.08.28,1.48.44.7.76.91.69.31,1.1.31c.23,0,.44-.03.65-.09.2-.06.38-.16.55-.28.16-.12.3-.27.41-.45.11-.18.18-.38.23-.6h1.38c-.05.37-.16.71-.34,1.03-.17.32-.4.6-.68.84-.28.24-.61.43-.98.57s-.78.21-1.23.21Z"/>
        <path class="cls-7" d="M182.07,40.09c-.67,0-1.27-.16-1.8-.47-.53-.31-.95-.76-1.25-1.34-.31-.58-.46-1.29-.46-2.11s.15-1.53.46-2.11c.31-.59.72-1.03,1.25-1.35.53-.31,1.13-.47,1.8-.47s1.26.16,1.79.47c.53.31.95.76,1.25,1.35.31.59.46,1.29.46,2.11s-.15,1.52-.46,2.11c-.31.59-.72,1.03-1.25,1.34-.53.31-1.12.46-1.79.46ZM182.07,38.87c.41,0,.78-.1,1.1-.31.32-.21.57-.51.75-.91.18-.4.27-.89.27-1.47s-.09-1.08-.27-1.48c-.18-.4-.43-.71-.75-.91-.32-.21-.69-.31-1.1-.31s-.79.1-1.11.31-.57.51-.76.92c-.18.4-.27.89-.27,1.47s.09,1.07.27,1.47.43.7.76.91.69.31,1.11.31Z"/>
        <path class="cls-7" d="M187.18,39.99v-7.64h1.55l2.64,4.21c.11.17.23.37.35.59.12.22.25.47.38.74.13.27.26.57.39.91h-.15c-.02-.29-.04-.58-.06-.88-.02-.3-.03-.59-.04-.86,0-.27-.01-.5-.01-.69v-4.01h1.39v7.64h-1.55l-2.38-3.79c-.15-.24-.29-.48-.42-.72-.13-.24-.28-.5-.43-.8-.15-.3-.34-.66-.56-1.08h.2c.02.37.04.73.06,1.06.02.33.03.63.04.89.01.26.02.48.02.64v3.79h-1.39Z"/>
        <path class="cls-7" d="M195.47,39.99v-7.64h4.89v1.15h-3.52v2.29h3.18v1.14h-3.18v3.06h-1.37Z"/>
        <path class="cls-7" d="M201.96,39.99v-7.64h4.96v1.15h-3.59v2.06h3.33v1.14h-3.33v2.13h3.61v1.15h-4.98Z"/>
        <path class="cls-7" d="M208.63,39.99v-7.64h2.86c.58,0,1.08.1,1.48.31.4.21.7.49.91.86.21.37.31.79.31,1.28s-.1.91-.31,1.27-.51.64-.92.83-.9.29-1.49.29h-2.04v-1.13h1.86c.34,0,.63-.05.85-.15.22-.1.38-.24.49-.43.11-.19.16-.42.16-.68s-.05-.51-.16-.7c-.11-.19-.27-.34-.49-.44-.22-.1-.5-.15-.85-.15h-1.28v6.49h-1.37ZM212.92,39.99l-1.86-3.47h1.5l1.89,3.47h-1.53Z"/>
        <path class="cls-7" d="M215.79,39.99v-7.64h4.96v1.15h-3.59v2.06h3.33v1.14h-3.33v2.13h3.62v1.15h-4.98Z"/>
        <path class="cls-7" d="M222.46,39.99v-7.64h1.55l2.64,4.21c.11.17.23.37.35.59.12.22.25.47.38.74.13.27.26.57.4.91h-.15c-.02-.29-.04-.58-.06-.88-.02-.3-.03-.59-.04-.86,0-.27-.01-.5-.01-.69v-4.01h1.39v7.64h-1.55l-2.38-3.79c-.15-.24-.29-.48-.43-.72-.13-.24-.28-.5-.43-.8-.15-.3-.34-.66-.56-1.08h.2c.02.37.04.73.06,1.06.02.33.03.63.04.89s.02.48.02.64v3.79h-1.39Z"/>
        <path class="cls-7" d="M234.01,40.09c-.67,0-1.27-.16-1.79-.47-.53-.31-.94-.76-1.25-1.34-.3-.58-.46-1.29-.46-2.11s.15-1.53.46-2.11c.31-.59.72-1.03,1.25-1.35.53-.31,1.12-.47,1.79-.47.42,0,.81.06,1.17.18.36.12.69.29.97.52.29.23.52.5.71.83s.31.7.37,1.12h-1.38c-.04-.23-.12-.43-.23-.6s-.24-.32-.4-.44c-.16-.12-.34-.21-.54-.28-.2-.06-.42-.1-.65-.1-.42,0-.79.11-1.11.32-.32.21-.58.52-.76.92-.18.4-.27.89-.27,1.47s.09,1.08.28,1.48.44.7.76.91c.32.21.69.31,1.1.31.23,0,.44-.03.65-.09.2-.06.38-.16.55-.28.16-.12.3-.27.41-.45.11-.18.18-.38.23-.6h1.38c-.05.37-.16.71-.34,1.03-.17.32-.4.6-.68.84-.28.24-.61.43-.98.57-.37.14-.78.21-1.23.21Z"/>
        <path class="cls-7" d="M238.8,39.99v-7.64h4.96v1.15h-3.59v2.06h3.33v1.14h-3.33v2.13h3.61v1.15h-4.98Z"/>
        <path class="cls-7" d="M248.16,40.11c-.59,0-1.1-.09-1.54-.28s-.78-.45-1.02-.8-.38-.78-.4-1.28h1.35c.02.27.11.49.25.67s.33.31.57.4c.24.09.5.13.78.13s.57-.05.8-.14c.23-.09.41-.22.54-.39.13-.17.2-.36.2-.58,0-.2-.06-.36-.17-.49s-.28-.24-.48-.33c-.21-.09-.45-.17-.73-.24l-.87-.23c-.64-.16-1.14-.41-1.49-.74s-.54-.77-.54-1.31c0-.45.12-.85.36-1.18.24-.34.57-.6.99-.79.42-.19.9-.28,1.43-.28s1.02.09,1.43.28c.41.19.73.45.96.78.23.33.35.71.36,1.13h-1.33c-.03-.33-.18-.58-.44-.76-.26-.18-.59-.27-1.01-.27-.29,0-.53.04-.74.13-.21.09-.37.21-.48.36-.11.15-.17.32-.17.52,0,.21.07.39.2.52s.3.25.5.33.4.15.61.2l.71.18c.28.07.56.16.83.27.27.11.51.26.72.43.21.17.38.38.51.63.13.25.19.54.19.87,0,.45-.11.84-.34,1.18-.23.34-.56.6-.99.79-.43.19-.95.28-1.56.28Z"/>
      </g>
      <g>
        <path class="cls-5" d="M82.08,20.96c0,1.18-.14,2.32-.42,3.38-.27,1.06-.72,2.01-1.33,2.81-.62.8-1.39,1.43-2.34,1.9-.96.47-2.11.7-3.45.7s-2.47-.24-3.4-.71c-.93-.46-1.7-1.1-2.29-1.9-.58-.8-1.02-1.73-1.29-2.8-.27-1.05-.41-2.17-.41-3.34s.15-2.25.44-3.29c.3-1.04.75-1.96,1.38-2.74.63-.78,1.41-1.41,2.36-1.87.95-.47,2.09-.69,3.4-.69s2.41.22,3.34.66c.93.45,1.68,1.06,2.28,1.83.59.77,1.03,1.67,1.3,2.71.28,1.05.42,2.17.42,3.38h0ZM78.6,20.98h0c0-.79-.07-1.54-.2-2.25-.14-.71-.35-1.34-.67-1.87-.31-.54-.71-.97-1.21-1.28-.49-.31-1.1-.47-1.81-.47-.76,0-1.4.16-1.92.47-.52.31-.94.74-1.25,1.28-.32.53-.55,1.16-.7,1.87-.13.72-.21,1.47-.21,2.25s.07,1.55.21,2.28c.14.73.37,1.37.68,1.93.31.56.72,1.01,1.24,1.34.51.33,1.13.49,1.88.49s1.36-.16,1.87-.49c.51-.33.91-.78,1.22-1.34.31-.56.52-1.2.67-1.93.13-.73.21-1.48.21-2.28Z"/>
        <path class="cls-5" d="M96.37,28.37c-.1.1-.27.22-.49.37-.23.15-.53.3-.9.45-.37.14-.82.28-1.35.39-.53.11-1.15.16-1.83.16-1.33,0-2.48-.22-3.46-.64-.97-.44-1.76-1.04-2.4-1.8-.63-.77-1.09-1.68-1.39-2.73-.3-1.04-.45-2.2-.45-3.46s.16-2.42.48-3.48c.32-1.07.8-1.99,1.44-2.77.64-.78,1.44-1.39,2.4-1.82.97-.44,2.09-.66,3.39-.66.64,0,1.22.05,1.74.17.52.12.96.25,1.36.41.39.16.71.32.96.5.26.17.44.32.58.43.15.13.27.29.38.47.11.18.17.38.17.59,0,.33-.13.66-.38.99-.24.33-.51.64-.81.92-.19-.19-.42-.4-.66-.6-.25-.21-.52-.39-.83-.55-.31-.16-.65-.29-1.04-.4-.39-.11-.82-.16-1.29-.16-.84,0-1.54.17-2.11.51-.57.33-1.02.78-1.37,1.33-.34.54-.59,1.16-.74,1.87-.15.7-.22,1.42-.22,2.15,0,.77.08,1.52.22,2.22.15.72.4,1.34.76,1.88.36.55.83.99,1.42,1.32.58.33,1.31.5,2.17.5.46,0,.88-.06,1.27-.17.39-.12.73-.26,1.03-.43.29-.17.55-.34.77-.52.22-.18.41-.34.55-.47.11.12.21.26.35.42.13.17.24.34.37.52.1.18.21.36.29.55.08.18.12.34.12.49,0,.21-.04.4-.12.55-.08.15-.21.32-.39.5Z"/>
        <path class="cls-5" d="M107.82,26.69c.39,0,.72.04.98.15.27.1.47.23.63.39.15.15.27.36.34.57.06.22.1.43.1.65,0,.18-.01.33-.02.45,0,.13-.02.27-.03.42h-10.66V12.7h10.27c.04.18.06.34.06.46,0,.12.01.28.01.46,0,.57-.15,1.01-.45,1.29-.29.29-.85.43-1.65.43h-4.85v4.09h5.22v2.66h-5.22v4.59h5.27Z"/>
        <path class="cls-5" d="M138.52,24.16v-11.43c.13-.01.26-.04.39-.04.11-.02.22-.04.34-.05.12-.02.23-.03.35-.03.22,0,.47.03.72.08.25.04.49.13.68.27.21.13.38.32.52.58.14.26.2.59.2,1v14.78h-2.84l-7.03-10.91v10.91h-3.23V12.75c.16-.03.39-.07.67-.1.27-.03.55-.04.84-.04.53,0,.93.08,1.23.27.3.19.56.47.79.85l6.36,10.44Z"/>
        <path class="cls-5" d="M121.62,14.14c-.12-.34-.27-.63-.46-.82-.19-.19-.39-.35-.6-.46-.21-.1-.43-.18-.65-.21-.22-.03-.42-.04-.6-.04-.41,0-.79.04-1.15.11-.36.07-.63.14-.83.24l-5.71,16.36h3.35l4.24-13.61,2.16,7.07s-1.95-.23-2.95.79c-.6.6-.42,1.3-.42,1.3,0,0,3.47-.83,4.49,1.82.64,1.68.94,2.64.94,2.64h3.5l-5.29-15.17Z"/>
        <path class="cls-3" d="M14,12.66c.15,0,.3-.03.44-.04.13-.01.26-.03.38-.05.13-.02.24-.03.36-.03.23,0,.47.03.73.08.25.04.49.14.72.27.22.13.41.32.56.58.14.26.22.59.22,1v12.03h4.8c.39,0,.72.05.98.14.26.09.47.23.62.4.14.17.25.36.31.57.06.21.08.42.08.64,0,.17,0,.37-.01.62-.01.24-.02.38-.04.38h-10.15V12.66Z"/>
        <path class="cls-3" d="M28.41,22.79c0,.59.04,1.12.11,1.61.08.48.23.89.45,1.23.22.33.53.6.93.8.4.18.92.29,1.56.29,1.13,0,1.91-.33,2.36-.98.44-.66.67-1.57.67-2.75v-10.32c.15,0,.29-.03.45-.04.13-.02.26-.03.38-.05.12-.02.24-.03.35-.03.23,0,.47.03.72.08.25.04.49.14.71.28.22.14.4.33.54.59.14.25.21.57.21.99v8.09c0,.33-.01.67-.03.99-.02.33-.05.66-.08,1.02-.06.7-.23,1.35-.51,1.97-.27.62-.66,1.16-1.18,1.61-.51.46-1.16.82-1.93,1.08-.77.26-1.69.39-2.74.39s-1.97-.12-2.71-.35c-.73-.23-1.35-.57-1.84-1-.5-.44-.87-.97-1.14-1.61-.26-.64-.45-1.37-.53-2.2-.04-.29-.07-.6-.08-.91-.02-.31-.03-.65-.03-.99v-9.9c.13,0,.27-.03.42-.04.13-.02.26-.03.38-.05.12-.02.24-.03.36-.03.24,0,.49.03.74.08.26.04.49.14.71.28.22.14.4.33.54.59.14.25.21.57.21.99v8.32Z"/>
        <path class="cls-3" d="M49.01,26.63c.39,0,.72.05.99.15.26.1.47.23.63.4.15.16.27.35.33.56.06.22.1.44.1.65,0,.18,0,.34-.01.45-.01.13-.03.26-.04.42h-10.66V12.64h10.26c.04.18.06.34.06.46.01.12.02.29.02.47,0,.57-.15,1.01-.44,1.3-.3.29-.85.43-1.65.43h-4.85v4.09h5.22v2.66h-5.22v4.58h5.27Z"/>
        <g>
          <path class="cls-5" d="M59.39,40.48V12.81c-2.35-.03-3.94-.87-5.53-2.19-4.11-3.8-13.33-9.08-14.02-9.48,0,0,0,0,0,0,0,0-.03-.01-.01,0,.49.38,7.82,5.33,9.72,7.08,1.49,1.39,3.71,3.22,5.57,7.58,0,0,3.09,6.46,4.28,24.68Z"/>
          <path class="cls-3" d="M67.75,12.14c5.41-6.4,8.8-8.67,8.8-8.67-.16,0-5.77,4.16-9.33,6.91-2.25,1.74-4.22,3.34-6.87,4.54v21.31s.03-.54.07-1.5c.14-3.18.77-10.81,3.77-17.24,1.02-2.2,2-3.52,3.55-5.36Z"/>
          <path class="cls-6" d="M57.46,7.35c-.14,1.96.85,3.75,2.2,3.99,1.35.25,2.55-1.15,2.69-3.11.14-1.96-.85-3.75-2.19-3.98-1.35-.25-2.55,1.15-2.69,3.11Z"/>
        </g>
        <path class="cls-3" d="M11.46,22.67c-.23-.47-.5-.86-.83-1.16-.33-.3-.68-.52-1.06-.69-.38-.15-.72-.28-1.01-.36.26-.09.54-.24.84-.45.3-.2.57-.45.81-.76.25-.32.45-.69.6-1.1.15-.42.23-.89.23-1.44,0-.65-.1-1.25-.32-1.79-.22-.52-.57-.97-1.07-1.34-.5-.36-1.17-.64-2.01-.83-.84-.19-1.88-.28-3.1-.28-.69,0-1.41.02-2.16.07-.74.05-1.54.12-2.38.19v16.49h4.98c1.03,0,1.97-.08,2.8-.23.84-.14,1.55-.4,2.16-.78.6-.37,1.06-.86,1.38-1.49.32-.61.48-1.41.48-2.37,0-.67-.11-1.25-.34-1.72h0ZM8.1,25.55h0c-.16.32-.4.58-.72.77-.31.19-.7.32-1.14.39-.44.07-.95.09-1.51.09h-1.38v-11.85c.14,0,.3-.03.49-.04.2-.02.45-.02.77-.02.91,0,1.63.14,2.17.44.54.3.81.84.81,1.62,0,1.72-.36,2.12-1.97,2.87-1.36.63-.92,2.01-.92,2.01,0,0,1.62-.36,2.77.57.55.43.9.99.9,1.88,0,.53-.09.95-.26,1.28Z"/>
        <g>
          <path class="cls-2" d="M146.35,15.27c-1.76,0-3.2-1.43-3.2-3.2s1.43-3.2,3.2-3.2,3.2,1.43,3.2,3.2-1.43,3.2-3.2,3.2ZM146.35,9.25c-1.55,0-2.82,1.26-2.82,2.82s1.26,2.82,2.82,2.82,2.82-1.27,2.82-2.82-1.26-2.82-2.82-2.82Z"/>
          <path class="cls-3" d="M145.06,13.54v-2.93h1.3c.26,0,.46.03.59.08.14.05.24.15.33.28.08.13.12.28.12.44,0,.21-.07.38-.2.52-.13.14-.34.23-.62.27.1.05.18.1.23.15.11.1.22.23.32.39l.51.8h-.49l-.39-.61c-.11-.17-.21-.31-.28-.4-.07-.09-.14-.16-.2-.19-.06-.04-.12-.06-.18-.08-.04,0-.12-.01-.21-.01h-.45v1.3h-.39ZM145.45,11.9h.83c.18,0,.32-.02.42-.06.1-.04.18-.09.23-.18.05-.08.08-.16.08-.26,0-.14-.05-.25-.15-.34-.1-.09-.26-.13-.48-.13h-.93v.97Z"/>
        </g>
      </g>
      <g>
        <rect class="cls-4" x="157.77" y="21.2" width=".76" height="21.45"/>
        <rect class="cls-1" x="157.77" width=".76" height="21.45"/>
      </g>
    </g>
  </g>
</svg>