<svg width="382" height="105" viewBox="0 0 382 105" fill="none" xmlns="http://www.w3.org/2000/svg">
<rect x="190.584" y="0.111328" width="190.548" height="104.012" fill="#03236C"/>
<rect x="0.579287" y="0.690615" width="189.39" height="102.853" fill="white" stroke="#03236C" stroke-width="1.15857"/>
<path fill-rule="evenodd" clip-rule="evenodd" d="M88.5165 86.1208V30.8178C83.8196 30.7583 80.6415 29.0774 77.4634 26.4398C69.2318 18.8459 50.8226 8.29011 49.4444 7.47396C49.4444 7.47396 49.3849 7.45234 49.4228 7.47396C50.401 8.23606 65.0538 18.127 68.848 21.624C71.8261 24.4021 76.2635 28.0613 79.9821 36.774C79.9821 36.774 86.1599 49.6863 88.5381 86.1046L88.5165 86.1262V86.1208Z" fill="#00ADEE"/>
<path fill-rule="evenodd" clip-rule="evenodd" d="M105.21 29.4773C116.025 16.6839 122.797 12.1492 122.797 12.1492C122.478 12.1492 111.263 20.4619 104.15 25.9587C99.6535 29.4341 95.7133 32.6338 90.4219 35.0336V77.6243C90.4219 77.6243 90.4813 76.5433 90.5624 74.6246C90.8435 68.2684 92.1028 53.0211 98.0968 40.1682C100.135 35.7686 102.096 33.131 105.194 29.4557L105.215 29.4773H105.21Z" fill="#0C1895"/>
<path fill-rule="evenodd" clip-rule="evenodd" d="M84.6575 19.8832C84.3764 23.8018 86.3546 27.3798 89.0571 27.8555C91.7541 28.3527 94.1539 25.5584 94.4349 21.6398C94.716 17.7212 92.7378 14.1432 90.057 13.6838C87.3599 13.1865 84.9601 15.9809 84.6791 19.8994L84.6575 19.8778V19.8832Z" fill="#EC1C24"/>
<path d="M18.3848 74.4145V36.1802H33.2969C36.2048 36.1802 38.6802 36.7315 40.7125 37.8341C42.7501 38.9367 44.3013 40.4609 45.3715 42.4012C46.4417 44.3416 46.9768 46.5684 46.9768 49.0871C46.9768 51.6058 46.4363 53.8488 45.3499 55.773C44.2635 57.6971 42.6907 59.2051 40.626 60.2915C38.5613 61.3779 36.0642 61.9238 33.1186 61.9238H23.514V55.6108H31.8538C33.4591 55.6108 34.7833 55.3352 35.821 54.7785C36.8534 54.2218 37.6263 53.4543 38.1289 52.4814C38.6316 51.5085 38.8856 50.3789 38.8856 49.0925C38.8856 47.8061 38.6316 46.6819 38.1289 45.7198C37.6263 44.7524 36.8479 44.0011 35.8048 43.4606C34.7617 42.9201 33.4374 42.6499 31.8268 42.6499H26.2057V74.4199H18.3848V74.4145Z" fill="#00277F"/>
<path d="M49.8081 74.4145V36.1802H64.7203C67.6281 36.1802 70.1036 36.6936 72.1358 37.7206C74.1735 38.7475 75.7247 40.1906 76.7949 42.0553C77.865 43.92 78.4001 46.109 78.4001 48.6277C78.4001 51.1464 77.8596 53.3083 76.7732 55.1352C75.6869 56.9567 74.114 58.3511 72.0494 59.3186C69.9847 60.2861 67.4876 60.7671 64.5419 60.7671H54.4293V54.4272H63.2826C64.8878 54.4272 66.2066 54.211 67.2336 53.7732C68.2605 53.3354 69.028 52.6868 69.5415 51.822C70.0549 50.9572 70.309 49.8924 70.309 48.6277C70.309 47.3629 70.0549 46.2387 69.5415 45.3577C69.028 44.4767 68.2551 43.8065 67.2174 43.3417C66.1796 42.8769 64.8608 42.6499 63.2502 42.6499H57.629V74.4199H49.8027L49.8081 74.4145ZM71.0819 74.4145L61.7638 57.0161H70.2603L79.7568 74.4145H71.0819Z" fill="#00277F"/>
<path d="M115.351 74.9816C112.286 74.9816 109.622 74.5114 107.357 73.5709C105.093 72.6305 103.325 71.236 102.06 69.3876C100.796 67.5391 100.125 65.2636 100.061 62.5611H107.681C107.784 63.8475 108.168 64.9177 108.838 65.7825C109.503 66.6473 110.395 67.2904 111.508 67.7228C112.622 68.1498 113.875 68.366 115.281 68.366C116.686 68.366 117.902 68.166 118.94 67.7607C119.978 67.3607 120.783 66.7932 121.367 66.0527C121.95 65.3122 122.237 64.4583 122.237 63.4854C122.237 62.6098 121.977 61.8801 121.453 61.291C120.929 60.7019 120.183 60.1938 119.21 59.7668C118.237 59.3398 117.048 58.9615 115.643 58.6372L111.432 57.5832C108.2 56.7941 105.665 55.5618 103.839 53.8755C102.006 52.1891 101.093 49.9623 101.093 47.1896C101.093 44.8817 101.714 42.8602 102.952 41.1307C104.19 39.4011 105.892 38.0607 108.06 37.0986C110.222 36.1419 112.692 35.6609 115.465 35.6609C118.237 35.6609 120.751 36.1419 122.853 37.1094C124.956 38.0769 126.599 39.4173 127.782 41.1361C128.961 42.8548 129.571 44.8384 129.604 47.0761H122.032C121.896 45.5357 121.242 44.3466 120.07 43.5088C118.897 42.6711 117.335 42.2495 115.383 42.2495C114.065 42.2495 112.935 42.4387 111.995 42.8116C111.054 43.1899 110.341 43.7088 109.854 44.379C109.368 45.0438 109.125 45.8059 109.125 46.6599C109.125 47.6003 109.406 48.3841 109.973 49.011C110.535 49.6326 111.292 50.1407 112.232 50.5244C113.173 50.9081 114.173 51.227 115.238 51.4865L118.702 52.335C120.313 52.6918 121.81 53.1836 123.194 53.7998C124.577 54.4159 125.793 55.1726 126.836 56.0698C127.88 56.9671 128.69 58.0318 129.263 59.2641C129.836 60.4965 130.123 61.918 130.123 63.5232C130.123 65.8311 129.539 67.8471 128.377 69.5659C127.215 71.2847 125.528 72.6143 123.323 73.5547C121.118 74.4952 118.464 74.9654 115.367 74.9654L115.351 74.9816Z" fill="#00277F"/>
<path d="M133.126 74.4145V36.1802H145.135L151.346 53.7353C151.6 54.5569 151.897 55.6162 152.232 56.9188C152.567 58.2214 152.902 59.6213 153.248 61.1293C153.589 62.6372 153.913 64.0966 154.21 65.518C154.507 66.9395 154.751 68.1719 154.94 69.215H153.426C153.616 68.1881 153.859 66.972 154.156 65.5559C154.453 64.1452 154.778 62.6859 155.118 61.1779C155.459 59.6699 155.799 58.2592 156.134 56.9404C156.469 55.6216 156.761 54.5569 157.021 53.7353L163.128 36.1802H175.192V74.4199H167.312V56.4054C167.312 55.5676 167.322 54.5245 167.35 53.2759C167.377 52.0274 167.409 50.6816 167.452 49.233C167.495 47.7899 167.533 46.3306 167.566 44.8713C167.598 43.4065 167.625 42.0283 167.641 40.7257H168.128C167.804 42.1472 167.441 43.6119 167.047 45.1253C166.652 46.6387 166.258 48.1088 165.852 49.5249C165.452 50.9464 165.069 52.249 164.712 53.4381C164.35 54.6271 164.047 55.6162 163.788 56.4L157.448 74.4145H150.854L144.411 56.4C144.157 55.6108 143.849 54.6325 143.487 53.4597C143.125 52.2868 142.746 50.995 142.346 49.5736C141.946 48.1521 141.536 46.6873 141.125 45.1739C140.714 43.6606 140.33 42.1742 139.968 40.7203H140.557C140.574 41.9526 140.601 43.2984 140.633 44.7524C140.665 46.2063 140.703 47.6656 140.747 49.1303C140.79 50.5951 140.822 51.9517 140.849 53.2111C140.876 54.4704 140.887 55.5352 140.887 56.4054V74.4199H133.109L133.126 74.4145Z" fill="#00277F"/>
<path d="M207.08 33.6189V18.2253H210.335V30.9355H216.934V33.6189H207.08ZM219.089 33.6189V18.2253H229.462V20.9087H222.344V24.5767H228.928V27.26H222.344V30.9355H229.492V33.6189H219.089ZM234.703 33.6189H231.215L236.529 18.2253H240.723L246.03 33.6189H242.542L238.687 21.743H238.566L234.703 33.6189ZM234.485 27.5682H242.723V30.1087H234.485V27.5682ZM247.883 33.6189V18.2253H253.956C255.119 18.2253 256.111 18.4333 256.933 18.8492C257.759 19.2601 258.388 19.8438 258.819 20.6005C259.255 21.3521 259.473 22.2366 259.473 23.2538C259.473 24.276 259.253 25.1554 258.812 25.892C258.371 26.6236 257.732 27.1849 256.895 27.5757C256.063 27.9666 255.056 28.162 253.873 28.162H249.807V25.5463H253.347C253.969 25.5463 254.485 25.4611 254.896 25.2907C255.307 25.1204 255.612 24.8648 255.813 24.5241C256.018 24.1833 256.121 23.7599 256.121 23.2538C256.121 22.7427 256.018 22.3117 255.813 21.961C255.612 21.6102 255.304 21.3446 254.888 21.1642C254.477 20.9788 253.959 20.8861 253.332 20.8861H251.137V33.6189H247.883ZM256.196 26.6136L260.022 33.6189H256.429L252.686 26.6136H256.196ZM274.649 18.2253V33.6189H271.838L265.141 23.9303H265.028V33.6189H261.773V18.2253H264.629L271.274 27.9064H271.409V18.2253H274.649ZM280.592 18.2253V33.6189H277.338V18.2253H280.592ZM296.146 18.2253V33.6189H293.335L286.637 23.9303H286.525V33.6189H283.27V18.2253H286.126L292.771 27.9064H292.906V18.2253H296.146ZM309.042 23.2012C308.937 22.8354 308.789 22.5122 308.598 22.2316C308.408 21.9459 308.175 21.7054 307.899 21.51C307.629 21.3095 307.318 21.1567 306.967 21.0515C306.622 20.9463 306.238 20.8936 305.817 20.8936C305.031 20.8936 304.339 21.0891 303.743 21.4799C303.152 21.8708 302.691 22.4395 302.36 23.1861C302.029 23.9278 301.864 24.8347 301.864 25.9071C301.864 26.9794 302.027 27.8914 302.352 28.643C302.678 29.3947 303.139 29.9684 303.735 30.3643C304.332 30.7551 305.036 30.9506 305.847 30.9506C306.584 30.9506 307.213 30.8203 307.734 30.5597C308.26 30.2941 308.661 29.9208 308.937 29.4398C309.217 28.9587 309.358 28.39 309.358 27.7336L310.019 27.8313H306.05V25.3809H312.492V27.3202C312.492 28.6731 312.206 29.8356 311.635 30.8078C311.064 31.7749 310.277 32.5215 309.275 33.0477C308.273 33.5688 307.125 33.8294 305.832 33.8294C304.389 33.8294 303.121 33.5112 302.029 32.8748C300.937 32.2334 300.085 31.3239 299.474 30.1463C298.867 28.9637 298.564 27.5607 298.564 25.9371C298.564 24.6894 298.744 23.577 299.105 22.5999C299.471 21.6177 299.982 20.7859 300.639 20.1044C301.295 19.4229 302.059 18.9043 302.931 18.5485C303.803 18.1927 304.748 18.0149 305.765 18.0149C306.637 18.0149 307.448 18.1426 308.2 18.3982C308.952 18.6487 309.618 19.0045 310.199 19.4655C310.786 19.9265 311.264 20.4752 311.635 21.1116C312.006 21.743 312.244 22.4395 312.349 23.2012H309.042ZM207.08 44.2253H211.094L215.333 54.5679H215.514L219.753 44.2253H223.767V59.6189H220.61V49.5995H220.482L216.498 59.5437H214.348L210.365 49.562H210.237V59.6189H207.08V44.2253ZM229.101 59.6189H225.614L230.928 44.2253H235.122L240.428 59.6189H236.941L233.085 47.743H232.965L229.101 59.6189ZM228.883 53.5682H237.121V56.1087H228.883V53.5682ZM255.157 44.2253V59.6189H252.346L245.649 49.9303H245.536V59.6189H242.281V44.2253H245.138L251.782 53.9064H251.917V44.2253H255.157ZM260.499 59.6189H257.012L262.326 44.2253H266.52L271.826 59.6189H268.339L264.483 47.743H264.363L260.499 59.6189ZM260.281 53.5682H268.519V56.1087H260.281V53.5682ZM283.163 49.2012C283.058 48.8354 282.91 48.5122 282.719 48.2316C282.529 47.9459 282.296 47.7054 282.02 47.51C281.75 47.3095 281.439 47.1567 281.088 47.0515C280.743 46.9463 280.359 46.8936 279.938 46.8936C279.152 46.8936 278.46 47.0891 277.864 47.4799C277.273 47.8708 276.812 48.4395 276.481 49.1861C276.15 49.9278 275.985 50.8347 275.985 51.9071C275.985 52.9794 276.148 53.8914 276.473 54.643C276.799 55.3947 277.26 55.9684 277.856 56.3643C278.453 56.7551 279.157 56.9506 279.968 56.9506C280.705 56.9506 281.334 56.8203 281.855 56.5597C282.381 56.2941 282.782 55.9208 283.058 55.4398C283.338 54.9587 283.479 54.39 283.479 53.7336L284.14 53.8313H280.171V51.3809H286.613V53.3202C286.613 54.6731 286.327 55.8356 285.756 56.8078C285.185 57.7749 284.398 58.5215 283.396 59.0477C282.394 59.5688 281.246 59.8294 279.953 59.8294C278.51 59.8294 277.243 59.5112 276.15 58.8748C275.058 58.2334 274.206 57.3239 273.595 56.1463C272.988 54.9637 272.685 53.5607 272.685 51.9371C272.685 50.6894 272.865 49.577 273.226 48.5999C273.592 47.6177 274.103 46.7859 274.76 46.1044C275.416 45.4229 276.18 44.9043 277.052 44.5485C277.924 44.1927 278.869 44.0149 279.886 44.0149C280.758 44.0149 281.569 44.1426 282.321 44.3982C283.073 44.6487 283.739 45.0045 284.32 45.4655C284.907 45.9265 285.385 46.4752 285.756 47.1116C286.127 47.743 286.365 48.4395 286.47 49.2012H283.163ZM289.058 59.6189V44.2253H299.43V46.9087H292.312V50.5767H298.897V53.26H292.312V56.9355H299.46V59.6189H289.058ZM302.018 44.2253H306.032L310.271 54.5679H310.451L314.69 44.2253H318.704V59.6189H315.547V49.5995H315.42L311.436 59.5437H309.286L305.302 49.562H305.175V59.6189H302.018V44.2253ZM321.386 59.6189V44.2253H331.758V46.9087H324.64V50.5767H331.225V53.26H324.64V56.9355H331.788V59.6189H321.386ZM347.221 44.2253V59.6189H344.41L337.713 49.9303H337.6V59.6189H334.346V44.2253H337.202L343.847 53.9064H343.982V44.2253H347.221ZM349.324 46.9087V44.2253H361.967V46.9087H357.254V59.6189H354.037V46.9087H349.324ZM215.431 74.6525C215.371 74.0462 215.113 73.5751 214.657 73.2394C214.201 72.9037 213.582 72.7358 212.8 72.7358C212.269 72.7358 211.82 72.811 211.455 72.9613C211.089 73.1066 210.808 73.3095 210.613 73.5701C210.422 73.8307 210.327 74.1263 210.327 74.457C210.317 74.7326 210.375 74.9732 210.5 75.1786C210.63 75.3841 210.808 75.562 211.034 75.7123C211.259 75.8576 211.52 75.9854 211.815 76.0956C212.111 76.2009 212.427 76.291 212.763 76.3662L214.146 76.6969C214.817 76.8473 215.433 77.0477 215.995 77.2982C216.556 77.5488 217.042 77.857 217.453 78.2228C217.864 78.5886 218.182 79.0195 218.407 79.5156C218.638 80.0117 218.756 80.5804 218.761 81.2218C218.756 82.1639 218.515 82.9806 218.039 83.6721C217.568 84.3586 216.886 84.8923 215.995 85.2731C215.108 85.649 214.038 85.8369 212.785 85.8369C211.542 85.8369 210.46 85.6465 209.538 85.2656C208.621 84.8848 207.904 84.3211 207.388 83.5744C206.877 82.8228 206.609 81.8933 206.584 80.7859H209.733C209.768 81.302 209.916 81.7329 210.177 82.0787C210.442 82.4194 210.796 82.6775 211.237 82.8529C211.683 83.0232 212.186 83.1084 212.747 83.1084C213.299 83.1084 213.777 83.0282 214.183 82.8679C214.594 82.7075 214.912 82.4846 215.138 82.1989C215.363 81.9133 215.476 81.5851 215.476 81.2143C215.476 80.8685 215.373 80.5779 215.168 80.3424C214.967 80.1069 214.672 79.9064 214.281 79.7411C213.895 79.5757 213.421 79.4254 212.86 79.2901L211.184 78.8692C209.886 78.5535 208.861 78.0599 208.11 77.3884C207.358 76.717 206.985 75.8125 206.99 74.675C206.985 73.743 207.233 72.9287 207.734 72.2322C208.24 71.5357 208.934 70.992 209.816 70.6011C210.698 70.2103 211.7 70.0149 212.823 70.0149C213.965 70.0149 214.962 70.2103 215.814 70.6011C216.671 70.992 217.337 71.5357 217.814 72.2322C218.29 72.9287 218.535 73.7355 218.55 74.6525H215.431ZM220.048 70.2253H223.693L227.203 76.8548H227.354L230.864 70.2253H234.509L228.895 80.177V85.6189H225.663V80.177L220.048 70.2253ZM244.638 74.6525C244.578 74.0462 244.319 73.5751 243.863 73.2394C243.407 72.9037 242.789 72.7358 242.007 72.7358C241.476 72.7358 241.027 72.811 240.661 72.9613C240.296 73.1066 240.015 73.3095 239.82 73.5701C239.629 73.8307 239.534 74.1263 239.534 74.457C239.524 74.7326 239.582 74.9732 239.707 75.1786C239.837 75.3841 240.015 75.562 240.241 75.7123C240.466 75.8576 240.727 75.9854 241.022 76.0956C241.318 76.2009 241.634 76.291 241.969 76.3662L243.352 76.6969C244.024 76.8473 244.64 77.0477 245.201 77.2982C245.763 77.5488 246.249 77.857 246.66 78.2228C247.07 78.5886 247.389 79.0195 247.614 79.5156C247.845 80.0117 247.962 80.5804 247.967 81.2218C247.962 82.1639 247.722 82.9806 247.246 83.6721C246.775 84.3586 246.093 84.8923 245.201 85.2731C244.314 85.649 243.245 85.8369 241.992 85.8369C240.749 85.8369 239.667 85.6465 238.745 85.2656C237.828 84.8848 237.111 84.3211 236.595 83.5744C236.084 82.8228 235.816 81.8933 235.791 80.7859H238.94C238.975 81.302 239.123 81.7329 239.384 82.0787C239.649 82.4194 240.003 82.6775 240.444 82.8529C240.889 83.0232 241.393 83.1084 241.954 83.1084C242.506 83.1084 242.984 83.0282 243.39 82.8679C243.801 82.7075 244.119 82.4846 244.345 82.1989C244.57 81.9133 244.683 81.5851 244.683 81.2143C244.683 80.8685 244.58 80.5779 244.375 80.3424C244.174 80.1069 243.879 79.9064 243.488 79.7411C243.102 79.5757 242.628 79.4254 242.067 79.2901L240.391 78.8692C239.093 78.5535 238.068 78.0599 237.317 77.3884C236.565 76.717 236.192 75.8125 236.197 74.675C236.192 73.743 236.44 72.9287 236.941 72.2322C237.447 71.5357 238.141 70.992 239.023 70.6011C239.905 70.2103 240.907 70.0149 242.029 70.0149C243.172 70.0149 244.169 70.2103 245.021 70.6011C245.878 70.992 246.544 71.5357 247.02 72.2322C247.496 72.9287 247.742 73.7355 247.757 74.6525H244.638ZM249.57 72.9087V70.2253H262.213V72.9087H257.5V85.6189H254.283V72.9087H249.57ZM264.295 85.6189V70.2253H274.668V72.9087H267.55V76.5767H274.134V79.26H267.55V82.9355H274.698V85.6189H264.295ZM277.255 70.2253H281.269L285.508 80.5679H285.688L289.928 70.2253H293.941V85.6189H290.785V75.5995H290.657L286.673 85.5437H284.523L280.54 75.562H280.412V85.6189H277.255V70.2253Z" fill="white"/>
</svg>
